<?xml version="1.0" encoding="UTF-8"?>
<svg xmlns="http://www.w3.org/2000/svg" xmlns:xlink="http://www.w3.org/1999/xlink" width="55px" height="55px" viewBox="0 0 55 55" version="1.1">
<defs>
<filter id="alpha" filterUnits="objectBoundingBox" x="0%" y="0%" width="100%" height="100%">
  <feColorMatrix type="matrix" in="SourceGraphic" values="0 0 0 0 1 0 0 0 0 1 0 0 0 0 1 0 0 0 1 0"/>
</filter>
<mask id="mask0">
  <g filter="url(#alpha)">
<rect x="0" y="0" width="55" height="55" style="fill:rgb(0%,0%,0%);fill-opacity:0.988235;stroke:none;"/>
  </g>
</mask>
<clipPath id="clip1">
  <rect x="0" y="0" width="55" height="55"/>
</clipPath>
<g id="surface5" clip-path="url(#clip1)">
<path style=" stroke:none;fill-rule:evenodd;fill:rgb(19.215686%,35.686275%,52.941176%);fill-opacity:1;" d="M 43.667969 4.71875 C 43.683594 5.191406 43.667969 5.660156 43.628906 6.128906 C 43.480469 7.171875 43.359375 8.222656 43.265625 9.273438 C 43.15625 9.539062 43.074219 9.828125 43.023438 10.144531 C 42.585938 10.851562 42.019531 11.179688 41.332031 11.121094 C 41.136719 11.144531 40.976562 11.074219 40.847656 10.902344 C 40.808594 10.75 40.726562 10.675781 40.605469 10.683594 C 40.210938 10.261719 40.023438 9.699219 40.039062 9.003906 C 40.175781 7.566406 40.351562 6.140625 40.566406 4.71875 C 40.957031 3.507812 41.640625 3.019531 42.621094 3.253906 C 43.207031 3.445312 43.554688 3.933594 43.667969 4.71875 Z M 43.667969 4.71875 "/>
</g>
<mask id="mask1">
  <g filter="url(#alpha)">
<rect x="0" y="0" width="55" height="55" style="fill:rgb(0%,0%,0%);fill-opacity:0.988235;stroke:none;"/>
  </g>
</mask>
<clipPath id="clip2">
  <rect x="0" y="0" width="55" height="55"/>
</clipPath>
<g id="surface8" clip-path="url(#clip2)">
<path style=" stroke:none;fill-rule:evenodd;fill:rgb(20.392157%,36.078431%,53.333333%);fill-opacity:1;" d="M 37.621094 9.492188 C 37.59375 9.855469 37.566406 10.214844 37.539062 10.578125 C 37.445312 10.6875 37.390625 10.832031 37.378906 11.011719 C 36.882812 11.757812 36.265625 12.046875 35.523438 11.878906 C 35.167969 11.796875 34.898438 11.546875 34.71875 11.121094 C 34.632812 10.558594 34.441406 10.089844 34.152344 9.710938 C 33.894531 9.085938 33.679688 8.433594 33.507812 7.757812 C 33.394531 7.226562 33.339844 6.683594 33.347656 6.128906 C 33.515625 4.984375 34.039062 4.402344 34.917969 4.394531 C 35.558594 4.390625 36.042969 4.75 36.371094 5.476562 C 36.746094 6.5625 37.125 7.648438 37.5 8.734375 C 37.578125 8.976562 37.617188 9.230469 37.621094 9.492188 Z M 37.621094 9.492188 "/>
</g>
<mask id="mask2">
  <g filter="url(#alpha)">
<rect x="0" y="0" width="55" height="55" style="fill:rgb(0%,0%,0%);fill-opacity:0.133333;stroke:none;"/>
  </g>
</mask>
<clipPath id="clip3">
  <rect x="0" y="0" width="55" height="55"/>
</clipPath>
<g id="surface11" clip-path="url(#clip3)">
<path style=" stroke:none;fill-rule:evenodd;fill:rgb(87.058824%,89.803922%,92.54902%);fill-opacity:1;" d="M 43.667969 4.71875 C 43.730469 6.261719 43.59375 7.78125 43.265625 9.273438 C 43.359375 8.222656 43.480469 7.171875 43.628906 6.128906 C 43.667969 5.660156 43.683594 5.191406 43.667969 4.71875 Z M 43.667969 4.71875 "/>
</g>
<mask id="mask3">
  <g filter="url(#alpha)">
<rect x="0" y="0" width="55" height="55" style="fill:rgb(0%,0%,0%);fill-opacity:0.596078;stroke:none;"/>
  </g>
</mask>
<clipPath id="clip4">
  <rect x="0" y="0" width="55" height="55"/>
</clipPath>
<g id="surface14" clip-path="url(#clip4)">
<path style=" stroke:none;fill-rule:evenodd;fill:rgb(39.215686%,53.72549%,66.27451%);fill-opacity:1;" d="M 33.347656 6.128906 C 33.339844 6.683594 33.394531 7.226562 33.507812 7.757812 C 33.394531 7.578125 33.324219 7.359375 33.304688 7.105469 C 33.242188 6.757812 33.253906 6.433594 33.347656 6.128906 Z M 33.347656 6.128906 "/>
</g>
<mask id="mask4">
  <g filter="url(#alpha)">
<rect x="0" y="0" width="55" height="55" style="fill:rgb(0%,0%,0%);fill-opacity:0.984314;stroke:none;"/>
  </g>
</mask>
<clipPath id="clip5">
  <rect x="0" y="0" width="55" height="55"/>
</clipPath>
<g id="surface17" clip-path="url(#clip5)">
<path style=" stroke:none;fill-rule:evenodd;fill:rgb(19.607843%,35.686275%,52.941176%);fill-opacity:1;" d="M 50.121094 12.421875 C 49.851562 12.75 49.582031 13.074219 49.316406 13.398438 C 49.191406 13.390625 49.109375 13.460938 49.074219 13.613281 C 48.949219 13.605469 48.867188 13.679688 48.832031 13.832031 C 48.707031 13.824219 48.625 13.894531 48.589844 14.046875 C 48.464844 14.039062 48.386719 14.113281 48.347656 14.265625 C 48.089844 14.359375 47.875 14.542969 47.703125 14.808594 C 47.527344 14.835938 47.390625 14.941406 47.296875 15.132812 C 46.867188 15.417969 46.410156 15.523438 45.925781 15.457031 C 45.597656 15.375 45.328125 15.15625 45.121094 14.808594 C 44.941406 14.257812 44.835938 13.679688 44.796875 13.070312 C 44.804688 12.460938 44.992188 11.972656 45.363281 11.609375 C 46.28125 10.769531 47.222656 9.972656 48.183594 9.222656 C 49.46875 8.902344 50.195312 9.609375 50.363281 11.335938 C 50.378906 11.746094 50.296875 12.109375 50.121094 12.421875 Z M 50.121094 12.421875 "/>
</g>
<mask id="mask5">
  <g filter="url(#alpha)">
<rect x="0" y="0" width="55" height="55" style="fill:rgb(0%,0%,0%);fill-opacity:0.00392157;stroke:none;"/>
  </g>
</mask>
<clipPath id="clip6">
  <rect x="0" y="0" width="55" height="55"/>
</clipPath>
<g id="surface20" clip-path="url(#clip6)">
<path style=" stroke:none;fill-rule:evenodd;fill:rgb(87.843137%,91.372549%,95.294118%);fill-opacity:1;" d="M 43.265625 9.273438 C 43.277344 9.625 43.199219 9.914062 43.023438 10.144531 C 43.074219 9.828125 43.15625 9.539062 43.265625 9.273438 Z M 43.265625 9.273438 "/>
</g>
<mask id="mask6">
  <g filter="url(#alpha)">
<rect x="0" y="0" width="55" height="55" style="fill:rgb(0%,0%,0%);fill-opacity:0.160784;stroke:none;"/>
  </g>
</mask>
<clipPath id="clip7">
  <rect x="0" y="0" width="55" height="55"/>
</clipPath>
<g id="surface23" clip-path="url(#clip7)">
<path style=" stroke:none;fill-rule:evenodd;fill:rgb(84.313725%,87.843137%,89.411765%);fill-opacity:1;" d="M 37.621094 9.492188 C 37.71875 9.863281 37.691406 10.226562 37.539062 10.578125 C 37.566406 10.214844 37.59375 9.855469 37.621094 9.492188 Z M 37.621094 9.492188 "/>
</g>
<mask id="mask7">
  <g filter="url(#alpha)">
<rect x="0" y="0" width="55" height="55" style="fill:rgb(0%,0%,0%);fill-opacity:0.364706;stroke:none;"/>
  </g>
</mask>
<clipPath id="clip8">
  <rect x="0" y="0" width="55" height="55"/>
</clipPath>
<g id="surface26" clip-path="url(#clip8)">
<path style=" stroke:none;fill-rule:evenodd;fill:rgb(47.058824%,57.254902%,68.235294%);fill-opacity:1;" d="M 34.152344 9.710938 C 34.441406 10.089844 34.632812 10.558594 34.71875 11.121094 C 34.511719 10.671875 34.320312 10.199219 34.152344 9.710938 Z M 34.152344 9.710938 "/>
</g>
<mask id="mask8">
  <g filter="url(#alpha)">
<rect x="0" y="0" width="55" height="55" style="fill:rgb(0%,0%,0%);fill-opacity:0.0627451;stroke:none;"/>
  </g>
</mask>
<clipPath id="clip9">
  <rect x="0" y="0" width="55" height="55"/>
</clipPath>
<g id="surface29" clip-path="url(#clip9)">
<path style=" stroke:none;fill-rule:evenodd;fill:rgb(71.764706%,84.705882%,90.588235%);fill-opacity:1;" d="M 40.605469 10.683594 C 40.726562 10.675781 40.808594 10.75 40.847656 10.902344 C 40.722656 10.910156 40.644531 10.839844 40.605469 10.683594 Z M 40.605469 10.683594 "/>
</g>
<mask id="mask9">
  <g filter="url(#alpha)">
<rect x="0" y="0" width="55" height="55" style="fill:rgb(0%,0%,0%);fill-opacity:0.0235294;stroke:none;"/>
  </g>
</mask>
<clipPath id="clip10">
  <rect x="0" y="0" width="55" height="55"/>
</clipPath>
<g id="surface32" clip-path="url(#clip10)">
<path style=" stroke:none;fill-rule:evenodd;fill:rgb(85.098039%,86.27451%,89.411765%);fill-opacity:1;" d="M 37.539062 10.578125 C 37.5625 10.78125 37.507812 10.925781 37.378906 11.011719 C 37.390625 10.832031 37.445312 10.6875 37.539062 10.578125 Z M 37.539062 10.578125 "/>
</g>
<mask id="mask10">
  <g filter="url(#alpha)">
<rect x="0" y="0" width="55" height="55" style="fill:rgb(0%,0%,0%);fill-opacity:0.0901961;stroke:none;"/>
  </g>
</mask>
<clipPath id="clip11">
  <rect x="0" y="0" width="55" height="55"/>
</clipPath>
<g id="surface35" clip-path="url(#clip11)">
<path style=" stroke:none;fill-rule:evenodd;fill:rgb(90.588235%,92.54902%,94.901961%);fill-opacity:1;" d="M 43.023438 10.144531 C 42.636719 11.039062 42.070312 11.363281 41.332031 11.121094 C 42.019531 11.179688 42.585938 10.851562 43.023438 10.144531 Z M 43.023438 10.144531 "/>
</g>
<mask id="mask11">
  <g filter="url(#alpha)">
<rect x="0" y="0" width="55" height="55" style="fill:rgb(0%,0%,0%);fill-opacity:0.054902;stroke:none;"/>
  </g>
</mask>
<clipPath id="clip12">
  <rect x="0" y="0" width="55" height="55"/>
</clipPath>
<g id="surface38" clip-path="url(#clip12)">
<path style=" stroke:none;fill-rule:evenodd;fill:rgb(91.372549%,93.72549%,95.294118%);fill-opacity:1;" d="M 37.378906 11.011719 C 37.226562 11.488281 36.957031 11.792969 36.574219 11.933594 C 36.207031 12.019531 35.859375 12.003906 35.523438 11.878906 C 36.265625 12.046875 36.882812 11.757812 37.378906 11.011719 Z M 37.378906 11.011719 "/>
</g>
<mask id="mask12">
  <g filter="url(#alpha)">
<rect x="0" y="0" width="55" height="55" style="fill:rgb(0%,0%,0%);fill-opacity:0.0117647;stroke:none;"/>
  </g>
</mask>
<clipPath id="clip13">
  <rect x="0" y="0" width="55" height="55"/>
</clipPath>
<g id="surface41" clip-path="url(#clip13)">
<path style=" stroke:none;fill-rule:evenodd;fill:rgb(91.764706%,93.72549%,95.294118%);fill-opacity:1;" d="M 50.121094 12.421875 C 49.953125 12.898438 49.6875 13.222656 49.316406 13.398438 C 49.582031 13.074219 49.851562 12.75 50.121094 12.421875 Z M 50.121094 12.421875 "/>
</g>
<mask id="mask13">
  <g filter="url(#alpha)">
<rect x="0" y="0" width="55" height="55" style="fill:rgb(0%,0%,0%);fill-opacity:0.00392157;stroke:none;"/>
  </g>
</mask>
<clipPath id="clip14">
  <rect x="0" y="0" width="55" height="55"/>
</clipPath>
<g id="surface44" clip-path="url(#clip14)">
<path style=" stroke:none;fill-rule:evenodd;fill:rgb(87.843137%,89.803922%,92.156863%);fill-opacity:1;" d="M 49.316406 13.398438 C 49.277344 13.550781 49.195312 13.621094 49.074219 13.613281 C 49.109375 13.460938 49.191406 13.390625 49.316406 13.398438 Z M 49.316406 13.398438 "/>
</g>
<mask id="mask14">
  <g filter="url(#alpha)">
<rect x="0" y="0" width="55" height="55" style="fill:rgb(0%,0%,0%);fill-opacity:0.00784314;stroke:none;"/>
  </g>
</mask>
<clipPath id="clip15">
  <rect x="0" y="0" width="55" height="55"/>
</clipPath>
<g id="surface47" clip-path="url(#clip15)">
<path style=" stroke:none;fill-rule:evenodd;fill:rgb(87.843137%,89.411765%,94.901961%);fill-opacity:1;" d="M 49.074219 13.613281 C 49.035156 13.765625 48.953125 13.839844 48.832031 13.832031 C 48.867188 13.679688 48.949219 13.605469 49.074219 13.613281 Z M 49.074219 13.613281 "/>
</g>
<mask id="mask15">
  <g filter="url(#alpha)">
<rect x="0" y="0" width="55" height="55" style="fill:rgb(0%,0%,0%);fill-opacity:0.00784314;stroke:none;"/>
  </g>
</mask>
<clipPath id="clip16">
  <rect x="0" y="0" width="55" height="55"/>
</clipPath>
<g id="surface50" clip-path="url(#clip16)">
<path style=" stroke:none;fill-rule:evenodd;fill:rgb(92.941176%,94.901961%,95.294118%);fill-opacity:1;" d="M 48.832031 13.832031 C 48.792969 13.984375 48.710938 14.054688 48.589844 14.046875 C 48.625 13.894531 48.707031 13.824219 48.832031 13.832031 Z M 48.832031 13.832031 "/>
</g>
<mask id="mask16">
  <g filter="url(#alpha)">
<rect x="0" y="0" width="55" height="55" style="fill:rgb(0%,0%,0%);fill-opacity:0.00392157;stroke:none;"/>
  </g>
</mask>
<clipPath id="clip17">
  <rect x="0" y="0" width="55" height="55"/>
</clipPath>
<g id="surface53" clip-path="url(#clip17)">
<path style=" stroke:none;fill-rule:evenodd;fill:rgb(87.843137%,89.803922%,92.156863%);fill-opacity:1;" d="M 48.589844 14.046875 C 48.550781 14.199219 48.46875 14.273438 48.347656 14.265625 C 48.386719 14.113281 48.464844 14.039062 48.589844 14.046875 Z M 48.589844 14.046875 "/>
</g>
<mask id="mask17">
  <g filter="url(#alpha)">
<rect x="0" y="0" width="55" height="55" style="fill:rgb(0%,0%,0%);fill-opacity:0.0352941;stroke:none;"/>
  </g>
</mask>
<clipPath id="clip18">
  <rect x="0" y="0" width="55" height="55"/>
</clipPath>
<g id="surface56" clip-path="url(#clip18)">
<path style=" stroke:none;fill-rule:evenodd;fill:rgb(88.235294%,90.588235%,94.117647%);fill-opacity:1;" d="M 48.347656 14.265625 C 48.175781 14.53125 47.960938 14.710938 47.703125 14.808594 C 47.875 14.542969 48.089844 14.359375 48.347656 14.265625 Z M 48.347656 14.265625 "/>
</g>
<mask id="mask18">
  <g filter="url(#alpha)">
<rect x="0" y="0" width="55" height="55" style="fill:rgb(0%,0%,0%);fill-opacity:0.109804;stroke:none;"/>
  </g>
</mask>
<clipPath id="clip19">
  <rect x="0" y="0" width="55" height="55"/>
</clipPath>
<g id="surface59" clip-path="url(#clip19)">
<path style=" stroke:none;fill-rule:evenodd;fill:rgb(40.392157%,56.078431%,67.843137%);fill-opacity:1;" d="M 44.796875 13.070312 C 44.835938 13.679688 44.941406 14.257812 45.121094 14.808594 C 44.816406 14.28125 44.710938 13.703125 44.796875 13.070312 Z M 44.796875 13.070312 "/>
</g>
<mask id="mask19">
  <g filter="url(#alpha)">
<rect x="0" y="0" width="55" height="55" style="fill:rgb(0%,0%,0%);fill-opacity:0.0352941;stroke:none;"/>
  </g>
</mask>
<clipPath id="clip20">
  <rect x="0" y="0" width="55" height="55"/>
</clipPath>
<g id="surface62" clip-path="url(#clip20)">
<path style=" stroke:none;fill-rule:evenodd;fill:rgb(87.058824%,88.627451%,89.803922%);fill-opacity:1;" d="M 47.703125 14.808594 C 47.609375 14.996094 47.472656 15.105469 47.296875 15.132812 C 47.390625 14.941406 47.527344 14.835938 47.703125 14.808594 Z M 47.703125 14.808594 "/>
</g>
<mask id="mask20">
  <g filter="url(#alpha)">
<rect x="0" y="0" width="55" height="55" style="fill:rgb(0%,0%,0%);fill-opacity:0.121569;stroke:none;"/>
  </g>
</mask>
<clipPath id="clip21">
  <rect x="0" y="0" width="55" height="55"/>
</clipPath>
<g id="surface65" clip-path="url(#clip21)">
<path style=" stroke:none;fill-rule:evenodd;fill:rgb(90.196078%,91.764706%,93.72549%);fill-opacity:1;" d="M 47.296875 15.132812 C 47.199219 15.3125 47.0625 15.4375 46.894531 15.511719 C 46.558594 15.601562 46.234375 15.582031 45.925781 15.457031 C 46.410156 15.523438 46.867188 15.417969 47.296875 15.132812 Z M 47.296875 15.132812 "/>
</g>
<mask id="mask21">
  <g filter="url(#alpha)">
<rect x="0" y="0" width="55" height="55" style="fill:rgb(0%,0%,0%);fill-opacity:0.988235;stroke:none;"/>
  </g>
</mask>
<clipPath id="clip22">
  <rect x="0" y="0" width="55" height="55"/>
</clipPath>
<g id="surface68" clip-path="url(#clip22)">
<path style=" stroke:none;fill-rule:evenodd;fill:rgb(20.392157%,36.470588%,53.72549%);fill-opacity:1;" d="M 47.296875 18.929688 C 48.738281 18.90625 50.164062 19.085938 51.574219 19.472656 C 51.902344 19.746094 52.089844 20.144531 52.136719 20.664062 C 52.199219 21.460938 52.066406 22.183594 51.734375 22.835938 C 51.582031 22.859375 51.472656 22.96875 51.410156 23.160156 C 51.113281 23.425781 50.777344 23.53125 50.402344 23.484375 C 49.554688 23.417969 48.707031 23.328125 47.863281 23.214844 C 46.585938 23.015625 46.058594 22.054688 46.289062 20.339844 C 46.421875 19.601562 46.757812 19.132812 47.296875 18.929688 Z M 47.296875 18.929688 "/>
</g>
<mask id="mask22">
  <g filter="url(#alpha)">
<rect x="0" y="0" width="55" height="55" style="fill:rgb(0%,0%,0%);fill-opacity:0.678431;stroke:none;"/>
  </g>
</mask>
<clipPath id="clip23">
  <rect x="0" y="0" width="55" height="55"/>
</clipPath>
<g id="surface71" clip-path="url(#clip23)">
<path style=" stroke:none;fill-rule:evenodd;fill:rgb(32.156863%,45.490196%,60.392157%);fill-opacity:1;" d="M 47.296875 18.929688 C 48.582031 18.8125 49.875 18.902344 51.167969 19.203125 C 51.328125 19.242188 51.464844 19.332031 51.574219 19.472656 C 50.164062 19.085938 48.738281 18.90625 47.296875 18.929688 Z M 47.296875 18.929688 "/>
</g>
<mask id="mask23">
  <g filter="url(#alpha)">
<rect x="0" y="0" width="55" height="55" style="fill:rgb(0%,0%,0%);fill-opacity:0.996078;stroke:none;"/>
  </g>
</mask>
<clipPath id="clip24">
  <rect x="0" y="0" width="55" height="55"/>
</clipPath>
<g id="surface74" clip-path="url(#clip24)">
<path style=" stroke:none;fill-rule:evenodd;fill:rgb(97.254902%,61.176471%,11.372549%);fill-opacity:1;" d="M 36.574219 22.511719 C 36.585938 22.875 36.574219 23.234375 36.53125 23.59375 C 36.375 24.003906 36.171875 24.367188 35.925781 24.679688 C 35.925781 24.75 35.902344 24.789062 35.847656 24.789062 C 35.582031 24.960938 35.367188 25.214844 35.203125 25.546875 C 35.175781 25.65625 35.121094 25.726562 35.039062 25.765625 C 34.777344 25.9375 34.5625 26.191406 34.394531 26.523438 C 34.394531 26.597656 34.367188 26.632812 34.316406 26.632812 C 34.050781 26.804688 33.835938 27.058594 33.667969 27.390625 C 33.667969 27.464844 33.640625 27.5 33.589844 27.5 C 33.324219 27.671875 33.109375 27.925781 32.945312 28.257812 C 32.945312 28.332031 32.917969 28.367188 32.863281 28.367188 C 32.601562 28.539062 32.382812 28.792969 32.21875 29.128906 C 32.21875 29.199219 32.191406 29.234375 32.136719 29.234375 C 31.875 29.410156 31.660156 29.660156 31.492188 29.996094 C 31.492188 30.066406 31.464844 30.105469 31.410156 30.105469 C 31.121094 30.3125 30.878906 30.601562 30.683594 30.972656 C 30.683594 31.042969 30.660156 31.078125 30.605469 31.078125 C 30.339844 31.253906 30.125 31.507812 29.960938 31.839844 C 29.960938 31.910156 29.933594 31.949219 29.878906 31.949219 C 29.617188 32.121094 29.402344 32.375 29.234375 32.707031 C 29.234375 32.78125 29.207031 32.816406 29.152344 32.816406 C 28.890625 32.988281 28.675781 33.242188 28.507812 33.574219 C 28.507812 33.648438 28.480469 33.683594 28.425781 33.683594 C 28.164062 33.855469 27.949219 34.109375 27.78125 34.441406 C 27.78125 34.515625 27.753906 34.550781 27.703125 34.550781 C 27.410156 34.761719 27.167969 35.050781 26.976562 35.417969 C 26.976562 35.492188 26.949219 35.527344 26.894531 35.527344 C 26.632812 35.699219 26.417969 35.953125 26.25 36.285156 C 26.25 36.359375 26.222656 36.394531 26.167969 36.394531 C 25.90625 36.570312 25.691406 36.820312 25.523438 37.15625 C 25.523438 37.226562 25.496094 37.261719 25.445312 37.261719 C 25.179688 37.4375 24.964844 37.6875 24.796875 38.023438 C 24.796875 38.09375 24.773438 38.132812 24.71875 38.132812 C 24.453125 38.304688 24.238281 38.558594 24.074219 38.890625 C 24.074219 38.960938 24.046875 39 23.992188 39 C 23.703125 39.207031 23.460938 39.496094 23.265625 39.867188 C 23.265625 39.9375 23.238281 39.976562 23.183594 39.976562 C 22.921875 40.148438 22.707031 40.402344 22.539062 40.734375 C 22.539062 40.808594 22.511719 40.84375 22.460938 40.84375 C 22.195312 41.015625 21.980469 41.269531 21.816406 41.601562 C 21.816406 41.675781 21.789062 41.710938 21.734375 41.710938 C 21.46875 41.882812 21.253906 42.136719 21.089844 42.46875 C 21.089844 42.542969 21.0625 42.578125 21.007812 42.578125 C 20.746094 42.75 20.53125 43.003906 20.363281 43.339844 C 20.363281 43.410156 20.335938 43.445312 20.28125 43.445312 C 19.992188 43.65625 19.75 43.945312 19.554688 44.316406 C 19.554688 44.386719 19.53125 44.421875 19.476562 44.421875 C 19.210938 44.597656 18.996094 44.847656 18.832031 45.183594 C 18.832031 45.253906 18.804688 45.289062 18.75 45.289062 C 18.488281 45.464844 18.273438 45.71875 18.105469 46.050781 C 18.105469 46.121094 18.078125 46.160156 18.023438 46.160156 C 17.761719 46.332031 17.546875 46.585938 17.378906 46.917969 C 17.378906 46.992188 17.351562 47.027344 17.296875 47.027344 C 17.035156 47.199219 16.820312 47.453125 16.652344 47.785156 C 16.652344 47.859375 16.625 47.894531 16.574219 47.894531 C 16.308594 48.066406 16.09375 48.320312 15.925781 48.652344 C 15.902344 48.761719 15.847656 48.835938 15.765625 48.871094 C 15.503906 49.042969 15.289062 49.296875 15.121094 49.628906 C 15.121094 49.703125 15.09375 49.738281 15.039062 49.738281 C 14.777344 49.910156 14.5625 50.164062 14.394531 50.496094 C 14.394531 50.570312 14.367188 50.605469 14.316406 50.605469 C 14.144531 50.707031 13.984375 50.832031 13.832031 50.984375 C 13.617188 51.039062 13.402344 51.058594 13.183594 51.039062 C 13.003906 50.976562 12.871094 50.832031 12.78125 50.605469 C 12.59375 48.585938 12.242188 46.613281 11.734375 44.695312 C 11.707031 44.582031 11.652344 44.527344 11.574219 44.53125 C 11.394531 43.960938 11.234375 43.382812 11.089844 42.796875 C 10.933594 42.160156 10.730469 41.542969 10.484375 40.953125 C 10.386719 40.601562 10.347656 40.238281 10.363281 39.867188 C 10.421875 39.402344 10.609375 39.058594 10.925781 38.835938 C 13.816406 36.839844 16.667969 34.757812 19.476562 32.597656 C 19.417969 32.488281 19.367188 32.378906 19.316406 32.273438 C 19.296875 32.207031 19.253906 32.171875 19.195312 32.164062 C 18.753906 32.332031 18.335938 32.546875 17.945312 32.816406 C 17.886719 32.914062 17.804688 32.949219 17.703125 32.925781 C 17.132812 33.09375 16.597656 33.347656 16.089844 33.683594 C 16.03125 33.78125 15.949219 33.816406 15.847656 33.792969 C 15.199219 33.996094 14.582031 34.285156 13.992188 34.660156 C 13.933594 34.757812 13.855469 34.792969 13.75 34.769531 C 13.101562 34.972656 12.484375 35.261719 11.894531 35.636719 C 11.839844 35.734375 11.757812 35.769531 11.652344 35.746094 C 11.085938 35.914062 10.546875 36.167969 10.039062 36.503906 C 9.984375 36.601562 9.902344 36.636719 9.796875 36.613281 C 9.351562 36.789062 8.894531 36.859375 8.425781 36.828125 C 8.3125 36.808594 8.207031 36.753906 8.105469 36.667969 C 7.117188 35.175781 6.070312 33.785156 4.960938 32.488281 C 4.921875 32.335938 4.839844 32.265625 4.71875 32.273438 C 4.089844 31.652344 3.445312 31.054688 2.78125 30.484375 C 2.175781 29.769531 2.054688 28.921875 2.417969 27.933594 C 2.558594 27.703125 2.734375 27.542969 2.945312 27.445312 C 13.773438 25.394531 24.605469 23.386719 35.445312 21.425781 C 36.027344 21.417969 36.402344 21.777344 36.574219 22.511719 Z M 36.574219 22.511719 "/>
</g>
<mask id="mask24">
  <g filter="url(#alpha)">
<rect x="0" y="0" width="55" height="55" style="fill:rgb(0%,0%,0%);fill-opacity:0.121569;stroke:none;"/>
  </g>
</mask>
<clipPath id="clip25">
  <rect x="0" y="0" width="55" height="55"/>
</clipPath>
<g id="surface77" clip-path="url(#clip25)">
<path style=" stroke:none;fill-rule:evenodd;fill:rgb(87.45098%,89.411765%,92.54902%);fill-opacity:1;" d="M 52.136719 20.664062 C 52.328125 21.496094 52.191406 22.21875 51.734375 22.835938 C 52.066406 22.183594 52.199219 21.460938 52.136719 20.664062 Z M 52.136719 20.664062 "/>
</g>
<mask id="mask25">
  <g filter="url(#alpha)">
<rect x="0" y="0" width="55" height="55" style="fill:rgb(0%,0%,0%);fill-opacity:0.0117647;stroke:none;"/>
  </g>
</mask>
<clipPath id="clip26">
  <rect x="0" y="0" width="55" height="55"/>
</clipPath>
<g id="surface80" clip-path="url(#clip26)">
<path style=" stroke:none;fill-rule:evenodd;fill:rgb(90.196078%,91.372549%,92.941176%);fill-opacity:1;" d="M 51.734375 22.835938 C 51.671875 23.027344 51.566406 23.136719 51.410156 23.160156 C 51.472656 22.96875 51.582031 22.859375 51.734375 22.835938 Z M 51.734375 22.835938 "/>
</g>
<mask id="mask26">
  <g filter="url(#alpha)">
<rect x="0" y="0" width="55" height="55" style="fill:rgb(0%,0%,0%);fill-opacity:0.00784314;stroke:none;"/>
  </g>
</mask>
<clipPath id="clip27">
  <rect x="0" y="0" width="55" height="55"/>
</clipPath>
<g id="surface83" clip-path="url(#clip27)">
<path style=" stroke:none;fill-rule:evenodd;fill:rgb(99.607843%,95.686275%,89.411765%);fill-opacity:1;" d="M 36.574219 22.511719 C 36.808594 23.472656 36.589844 24.195312 35.925781 24.679688 C 36.171875 24.367188 36.375 24.003906 36.53125 23.59375 C 36.574219 23.234375 36.585938 22.875 36.574219 22.511719 Z M 36.574219 22.511719 "/>
</g>
<mask id="mask27">
  <g filter="url(#alpha)">
<rect x="0" y="0" width="55" height="55" style="fill:rgb(0%,0%,0%);fill-opacity:0.00784314;stroke:none;"/>
  </g>
</mask>
<clipPath id="clip28">
  <rect x="0" y="0" width="55" height="55"/>
</clipPath>
<g id="surface86" clip-path="url(#clip28)">
<path style=" stroke:none;fill-rule:evenodd;fill:rgb(100%,96.470588%,90.980392%);fill-opacity:1;" d="M 35.847656 24.789062 C 35.679688 25.121094 35.464844 25.375 35.203125 25.546875 C 35.367188 25.214844 35.582031 24.960938 35.847656 24.789062 Z M 35.847656 24.789062 "/>
</g>
<mask id="mask28">
  <g filter="url(#alpha)">
<rect x="0" y="0" width="55" height="55" style="fill:rgb(0%,0%,0%);fill-opacity:0.988235;stroke:none;"/>
  </g>
</mask>
<clipPath id="clip29">
  <rect x="0" y="0" width="55" height="55"/>
</clipPath>
<g id="surface89" clip-path="url(#clip29)">
<path style=" stroke:none;fill-rule:evenodd;fill:rgb(20.392157%,36.470588%,53.72549%);fill-opacity:1;" d="M 48.265625 30.972656 C 48.167969 31.15625 48.113281 31.375 48.105469 31.621094 C 47.945312 31.871094 47.785156 32.125 47.621094 32.382812 C 47.160156 32.660156 46.675781 32.765625 46.167969 32.707031 C 46.023438 32.707031 45.890625 32.652344 45.765625 32.542969 C 44.941406 31.460938 44.203125 30.285156 43.546875 29.019531 C 43.160156 27.15625 43.671875 26.109375 45.082031 25.871094 C 45.410156 25.847656 45.71875 25.9375 46.007812 26.144531 C 46.753906 27.148438 47.4375 28.214844 48.066406 29.34375 C 48.304688 29.867188 48.371094 30.410156 48.265625 30.972656 Z M 48.265625 30.972656 "/>
</g>
<mask id="mask29">
  <g filter="url(#alpha)">
<rect x="0" y="0" width="55" height="55" style="fill:rgb(0%,0%,0%);fill-opacity:0.00784314;stroke:none;"/>
  </g>
</mask>
<clipPath id="clip30">
  <rect x="0" y="0" width="55" height="55"/>
</clipPath>
<g id="surface92" clip-path="url(#clip30)">
<path style=" stroke:none;fill-rule:evenodd;fill:rgb(100%,96.470588%,90.588235%);fill-opacity:1;" d="M 35.039062 25.765625 C 34.875 26.097656 34.660156 26.351562 34.394531 26.523438 C 34.5625 26.191406 34.777344 25.9375 35.039062 25.765625 Z M 35.039062 25.765625 "/>
</g>
<mask id="mask30">
  <g filter="url(#alpha)">
<rect x="0" y="0" width="55" height="55" style="fill:rgb(0%,0%,0%);fill-opacity:0.00784314;stroke:none;"/>
  </g>
</mask>
<clipPath id="clip31">
  <rect x="0" y="0" width="55" height="55"/>
</clipPath>
<g id="surface95" clip-path="url(#clip31)">
<path style=" stroke:none;fill-rule:evenodd;fill:rgb(99.607843%,96.470588%,90.980392%);fill-opacity:1;" d="M 34.316406 26.632812 C 34.148438 26.964844 33.933594 27.21875 33.667969 27.390625 C 33.835938 27.058594 34.050781 26.804688 34.316406 26.632812 Z M 34.316406 26.632812 "/>
</g>
<mask id="mask31">
  <g filter="url(#alpha)">
<rect x="0" y="0" width="55" height="55" style="fill:rgb(0%,0%,0%);fill-opacity:0.00784314;stroke:none;"/>
  </g>
</mask>
<clipPath id="clip32">
  <rect x="0" y="0" width="55" height="55"/>
</clipPath>
<g id="surface98" clip-path="url(#clip32)">
<path style=" stroke:none;fill-rule:evenodd;fill:rgb(100%,96.470588%,91.764706%);fill-opacity:1;" d="M 33.589844 27.5 C 33.421875 27.832031 33.207031 28.085938 32.945312 28.257812 C 33.109375 27.925781 33.324219 27.671875 33.589844 27.5 Z M 33.589844 27.5 "/>
</g>
<mask id="mask32">
  <g filter="url(#alpha)">
<rect x="0" y="0" width="55" height="55" style="fill:rgb(0%,0%,0%);fill-opacity:0.00784314;stroke:none;"/>
  </g>
</mask>
<clipPath id="clip33">
  <rect x="0" y="0" width="55" height="55"/>
</clipPath>
<g id="surface101" clip-path="url(#clip33)">
<path style=" stroke:none;fill-rule:evenodd;fill:rgb(98.823529%,95.294118%,90.588235%);fill-opacity:1;" d="M 32.863281 28.367188 C 32.695312 28.703125 32.480469 28.953125 32.21875 29.128906 C 32.382812 28.792969 32.601562 28.539062 32.863281 28.367188 Z M 32.863281 28.367188 "/>
</g>
<mask id="mask33">
  <g filter="url(#alpha)">
<rect x="0" y="0" width="55" height="55" style="fill:rgb(0%,0%,0%);fill-opacity:0.00784314;stroke:none;"/>
  </g>
</mask>
<clipPath id="clip34">
  <rect x="0" y="0" width="55" height="55"/>
</clipPath>
<g id="surface104" clip-path="url(#clip34)">
<path style=" stroke:none;fill-rule:evenodd;fill:rgb(100%,96.470588%,90.980392%);fill-opacity:1;" d="M 32.136719 29.234375 C 31.96875 29.570312 31.753906 29.820312 31.492188 29.996094 C 31.660156 29.660156 31.875 29.410156 32.136719 29.234375 Z M 32.136719 29.234375 "/>
</g>
<mask id="mask34">
  <g filter="url(#alpha)">
<rect x="0" y="0" width="55" height="55" style="fill:rgb(0%,0%,0%);fill-opacity:0.00784314;stroke:none;"/>
  </g>
</mask>
<clipPath id="clip35">
  <rect x="0" y="0" width="55" height="55"/>
</clipPath>
<g id="surface107" clip-path="url(#clip35)">
<path style=" stroke:none;fill-rule:evenodd;fill:rgb(100%,96.470588%,90.588235%);fill-opacity:1;" d="M 31.410156 30.105469 C 31.21875 30.472656 30.976562 30.761719 30.683594 30.972656 C 30.878906 30.601562 31.121094 30.3125 31.410156 30.105469 Z M 31.410156 30.105469 "/>
</g>
<mask id="mask35">
  <g filter="url(#alpha)">
<rect x="0" y="0" width="55" height="55" style="fill:rgb(0%,0%,0%);fill-opacity:0.109804;stroke:none;"/>
  </g>
</mask>
<clipPath id="clip36">
  <rect x="0" y="0" width="55" height="55"/>
</clipPath>
<g id="surface110" clip-path="url(#clip36)">
<path style=" stroke:none;fill-rule:evenodd;fill:rgb(86.27451%,88.627451%,92.941176%);fill-opacity:1;" d="M 48.265625 30.972656 C 48.285156 31.230469 48.230469 31.449219 48.105469 31.621094 C 48.113281 31.375 48.167969 31.15625 48.265625 30.972656 Z M 48.265625 30.972656 "/>
</g>
<mask id="mask36">
  <g filter="url(#alpha)">
<rect x="0" y="0" width="55" height="55" style="fill:rgb(0%,0%,0%);fill-opacity:0.00784314;stroke:none;"/>
  </g>
</mask>
<clipPath id="clip37">
  <rect x="0" y="0" width="55" height="55"/>
</clipPath>
<g id="surface113" clip-path="url(#clip37)">
<path style=" stroke:none;fill-rule:evenodd;fill:rgb(99.607843%,96.078431%,90.588235%);fill-opacity:1;" d="M 30.605469 31.078125 C 30.4375 31.414062 30.222656 31.667969 29.960938 31.839844 C 30.125 31.507812 30.339844 31.253906 30.605469 31.078125 Z M 30.605469 31.078125 "/>
</g>
<mask id="mask37">
  <g filter="url(#alpha)">
<rect x="0" y="0" width="55" height="55" style="fill:rgb(0%,0%,0%);fill-opacity:0.00392157;stroke:none;"/>
  </g>
</mask>
<clipPath id="clip38">
  <rect x="0" y="0" width="55" height="55"/>
</clipPath>
<g id="surface116" clip-path="url(#clip38)">
<path style=" stroke:none;fill-rule:evenodd;fill:rgb(91.372549%,92.941176%,94.509804%);fill-opacity:1;" d="M 48.105469 31.621094 C 48.058594 32.011719 47.894531 32.265625 47.621094 32.382812 C 47.785156 32.125 47.945312 31.871094 48.105469 31.621094 Z M 48.105469 31.621094 "/>
</g>
<mask id="mask38">
  <g filter="url(#alpha)">
<rect x="0" y="0" width="55" height="55" style="fill:rgb(0%,0%,0%);fill-opacity:0.129412;stroke:none;"/>
  </g>
</mask>
<clipPath id="clip39">
  <rect x="0" y="0" width="55" height="55"/>
</clipPath>
<g id="surface119" clip-path="url(#clip39)">
<path style=" stroke:none;fill-rule:evenodd;fill:rgb(100%,86.27451%,58.823529%);fill-opacity:1;" d="M 4.71875 32.273438 C 4.839844 32.265625 4.921875 32.335938 4.960938 32.488281 C 4.835938 32.5 4.757812 32.425781 4.71875 32.273438 Z M 4.71875 32.273438 "/>
</g>
<mask id="mask39">
  <g filter="url(#alpha)">
<rect x="0" y="0" width="55" height="55" style="fill:rgb(0%,0%,0%);fill-opacity:0.00784314;stroke:none;"/>
  </g>
</mask>
<clipPath id="clip40">
  <rect x="0" y="0" width="55" height="55"/>
</clipPath>
<g id="surface122" clip-path="url(#clip40)">
<path style=" stroke:none;fill-rule:evenodd;fill:rgb(100%,96.470588%,91.764706%);fill-opacity:1;" d="M 29.878906 31.949219 C 29.710938 32.28125 29.496094 32.535156 29.234375 32.707031 C 29.402344 32.375 29.617188 32.121094 29.878906 31.949219 Z M 29.878906 31.949219 "/>
</g>
<mask id="mask40">
  <g filter="url(#alpha)">
<rect x="0" y="0" width="55" height="55" style="fill:rgb(0%,0%,0%);fill-opacity:0.0823529;stroke:none;"/>
  </g>
</mask>
<clipPath id="clip41">
  <rect x="0" y="0" width="55" height="55"/>
</clipPath>
<g id="surface125" clip-path="url(#clip41)">
<path style=" stroke:none;fill-rule:evenodd;fill:rgb(99.607843%,95.294118%,89.019608%);fill-opacity:1;" d="M 19.316406 32.273438 C 18.863281 32.476562 18.40625 32.65625 17.945312 32.816406 C 18.335938 32.546875 18.753906 32.332031 19.195312 32.164062 C 19.253906 32.171875 19.296875 32.207031 19.316406 32.273438 Z M 19.316406 32.273438 "/>
</g>
<mask id="mask41">
  <g filter="url(#alpha)">
<rect x="0" y="0" width="55" height="55" style="fill:rgb(0%,0%,0%);fill-opacity:0.0901961;stroke:none;"/>
  </g>
</mask>
<clipPath id="clip42">
  <rect x="0" y="0" width="55" height="55"/>
</clipPath>
<g id="surface128" clip-path="url(#clip42)">
<path style=" stroke:none;fill-rule:evenodd;fill:rgb(90.196078%,90.980392%,94.117647%);fill-opacity:1;" d="M 47.621094 32.382812 C 47.503906 32.589844 47.339844 32.714844 47.136719 32.761719 C 46.800781 32.847656 46.476562 32.832031 46.167969 32.707031 C 46.675781 32.765625 47.160156 32.660156 47.621094 32.382812 Z M 47.621094 32.382812 "/>
</g>
<mask id="mask42">
  <g filter="url(#alpha)">
<rect x="0" y="0" width="55" height="55" style="fill:rgb(0%,0%,0%);fill-opacity:0.0666667;stroke:none;"/>
  </g>
</mask>
<clipPath id="clip43">
  <rect x="0" y="0" width="55" height="55"/>
</clipPath>
<g id="surface131" clip-path="url(#clip43)">
<path style=" stroke:none;fill-rule:evenodd;fill:rgb(99.215686%,94.901961%,89.019608%);fill-opacity:1;" d="M 17.703125 32.925781 C 17.195312 33.261719 16.65625 33.515625 16.089844 33.683594 C 16.597656 33.347656 17.132812 33.09375 17.703125 32.925781 Z M 17.703125 32.925781 "/>
</g>
<mask id="mask43">
  <g filter="url(#alpha)">
<rect x="0" y="0" width="55" height="55" style="fill:rgb(0%,0%,0%);fill-opacity:0.00784314;stroke:none;"/>
  </g>
</mask>
<clipPath id="clip44">
  <rect x="0" y="0" width="55" height="55"/>
</clipPath>
<g id="surface134" clip-path="url(#clip44)">
<path style=" stroke:none;fill-rule:evenodd;fill:rgb(98.823529%,95.294118%,90.588235%);fill-opacity:1;" d="M 29.152344 32.816406 C 28.988281 33.148438 28.769531 33.402344 28.507812 33.574219 C 28.675781 33.242188 28.890625 32.988281 29.152344 32.816406 Z M 29.152344 32.816406 "/>
</g>
<mask id="mask44">
  <g filter="url(#alpha)">
<rect x="0" y="0" width="55" height="55" style="fill:rgb(0%,0%,0%);fill-opacity:0.00784314;stroke:none;"/>
  </g>
</mask>
<clipPath id="clip45">
  <rect x="0" y="0" width="55" height="55"/>
</clipPath>
<g id="surface137" clip-path="url(#clip45)">
<path style=" stroke:none;fill-rule:evenodd;fill:rgb(100%,96.470588%,90.980392%);fill-opacity:1;" d="M 28.425781 33.683594 C 28.261719 34.015625 28.046875 34.269531 27.78125 34.441406 C 27.949219 34.109375 28.164062 33.855469 28.425781 33.683594 Z M 28.425781 33.683594 "/>
</g>
<mask id="mask45">
  <g filter="url(#alpha)">
<rect x="0" y="0" width="55" height="55" style="fill:rgb(0%,0%,0%);fill-opacity:0.0745098;stroke:none;"/>
  </g>
</mask>
<clipPath id="clip46">
  <rect x="0" y="0" width="55" height="55"/>
</clipPath>
<g id="surface140" clip-path="url(#clip46)">
<path style=" stroke:none;fill-rule:evenodd;fill:rgb(98.823529%,94.117647%,88.627451%);fill-opacity:1;" d="M 15.847656 33.792969 C 15.257812 34.164062 14.640625 34.453125 13.992188 34.660156 C 14.582031 34.285156 15.199219 33.996094 15.847656 33.792969 Z M 15.847656 33.792969 "/>
</g>
<mask id="mask46">
  <g filter="url(#alpha)">
<rect x="0" y="0" width="55" height="55" style="fill:rgb(0%,0%,0%);fill-opacity:0.00784314;stroke:none;"/>
  </g>
</mask>
<clipPath id="clip47">
  <rect x="0" y="0" width="55" height="55"/>
</clipPath>
<g id="surface143" clip-path="url(#clip47)">
<path style=" stroke:none;fill-rule:evenodd;fill:rgb(100%,96.470588%,90.980392%);fill-opacity:1;" d="M 27.703125 34.550781 C 27.507812 34.921875 27.265625 35.210938 26.976562 35.417969 C 27.167969 35.050781 27.410156 34.761719 27.703125 34.550781 Z M 27.703125 34.550781 "/>
</g>
<mask id="mask47">
  <g filter="url(#alpha)">
<rect x="0" y="0" width="55" height="55" style="fill:rgb(0%,0%,0%);fill-opacity:0.0745098;stroke:none;"/>
  </g>
</mask>
<clipPath id="clip48">
  <rect x="0" y="0" width="55" height="55"/>
</clipPath>
<g id="surface146" clip-path="url(#clip48)">
<path style=" stroke:none;fill-rule:evenodd;fill:rgb(98.431373%,93.72549%,88.627451%);fill-opacity:1;" d="M 13.75 34.769531 C 13.160156 35.140625 12.542969 35.429688 11.894531 35.636719 C 12.484375 35.261719 13.101562 34.972656 13.75 34.769531 Z M 13.75 34.769531 "/>
</g>
<mask id="mask48">
  <g filter="url(#alpha)">
<rect x="0" y="0" width="55" height="55" style="fill:rgb(0%,0%,0%);fill-opacity:0.00784314;stroke:none;"/>
  </g>
</mask>
<clipPath id="clip49">
  <rect x="0" y="0" width="55" height="55"/>
</clipPath>
<g id="surface149" clip-path="url(#clip49)">
<path style=" stroke:none;fill-rule:evenodd;fill:rgb(100%,96.470588%,90.588235%);fill-opacity:1;" d="M 26.894531 35.527344 C 26.726562 35.859375 26.511719 36.113281 26.25 36.285156 C 26.417969 35.953125 26.632812 35.699219 26.894531 35.527344 Z M 26.894531 35.527344 "/>
</g>
<mask id="mask49">
  <g filter="url(#alpha)">
<rect x="0" y="0" width="55" height="55" style="fill:rgb(0%,0%,0%);fill-opacity:0.0666667;stroke:none;"/>
  </g>
</mask>
<clipPath id="clip50">
  <rect x="0" y="0" width="55" height="55"/>
</clipPath>
<g id="surface152" clip-path="url(#clip50)">
<path style=" stroke:none;fill-rule:evenodd;fill:rgb(99.215686%,94.901961%,89.019608%);fill-opacity:1;" d="M 11.652344 35.746094 C 11.144531 36.082031 10.605469 36.335938 10.039062 36.503906 C 10.546875 36.167969 11.085938 35.914062 11.652344 35.746094 Z M 11.652344 35.746094 "/>
</g>
<mask id="mask50">
  <g filter="url(#alpha)">
<rect x="0" y="0" width="55" height="55" style="fill:rgb(0%,0%,0%);fill-opacity:0.121569;stroke:none;"/>
  </g>
</mask>
<clipPath id="clip51">
  <rect x="0" y="0" width="55" height="55"/>
</clipPath>
<g id="surface155" clip-path="url(#clip51)">
<path style=" stroke:none;fill-rule:evenodd;fill:rgb(97.647059%,93.333333%,89.803922%);fill-opacity:1;" d="M 9.796875 36.613281 C 9.691406 36.753906 9.554688 36.84375 9.394531 36.882812 C 9.058594 36.972656 8.734375 36.953125 8.425781 36.828125 C 8.894531 36.859375 9.351562 36.789062 9.796875 36.613281 Z M 9.796875 36.613281 "/>
</g>
<mask id="mask51">
  <g filter="url(#alpha)">
<rect x="0" y="0" width="55" height="55" style="fill:rgb(0%,0%,0%);fill-opacity:0.00784314;stroke:none;"/>
  </g>
</mask>
<clipPath id="clip52">
  <rect x="0" y="0" width="55" height="55"/>
</clipPath>
<g id="surface158" clip-path="url(#clip52)">
<path style=" stroke:none;fill-rule:evenodd;fill:rgb(100%,96.470588%,91.764706%);fill-opacity:1;" d="M 26.167969 36.394531 C 26.003906 36.730469 25.789062 36.980469 25.523438 37.15625 C 25.691406 36.820312 25.90625 36.570312 26.167969 36.394531 Z M 26.167969 36.394531 "/>
</g>
<mask id="mask52">
  <g filter="url(#alpha)">
<rect x="0" y="0" width="55" height="55" style="fill:rgb(0%,0%,0%);fill-opacity:0.00784314;stroke:none;"/>
  </g>
</mask>
<clipPath id="clip53">
  <rect x="0" y="0" width="55" height="55"/>
</clipPath>
<g id="surface161" clip-path="url(#clip53)">
<path style=" stroke:none;fill-rule:evenodd;fill:rgb(98.823529%,95.294118%,90.588235%);fill-opacity:1;" d="M 25.445312 37.261719 C 25.277344 37.597656 25.0625 37.851562 24.796875 38.023438 C 24.964844 37.6875 25.179688 37.4375 25.445312 37.261719 Z M 25.445312 37.261719 "/>
</g>
<mask id="mask53">
  <g filter="url(#alpha)">
<rect x="0" y="0" width="55" height="55" style="fill:rgb(0%,0%,0%);fill-opacity:0.00784314;stroke:none;"/>
  </g>
</mask>
<clipPath id="clip54">
  <rect x="0" y="0" width="55" height="55"/>
</clipPath>
<g id="surface164" clip-path="url(#clip54)">
<path style=" stroke:none;fill-rule:evenodd;fill:rgb(99.215686%,95.686275%,90.980392%);fill-opacity:1;" d="M 24.71875 38.132812 C 24.550781 38.464844 24.335938 38.71875 24.074219 38.890625 C 24.238281 38.558594 24.453125 38.304688 24.71875 38.132812 Z M 24.71875 38.132812 "/>
</g>
<mask id="mask54">
  <g filter="url(#alpha)">
<rect x="0" y="0" width="55" height="55" style="fill:rgb(0%,0%,0%);fill-opacity:0.00784314;stroke:none;"/>
  </g>
</mask>
<clipPath id="clip55">
  <rect x="0" y="0" width="55" height="55"/>
</clipPath>
<g id="surface167" clip-path="url(#clip55)">
<path style=" stroke:none;fill-rule:evenodd;fill:rgb(100%,96.470588%,90.980392%);fill-opacity:1;" d="M 23.992188 39 C 23.796875 39.367188 23.554688 39.65625 23.265625 39.867188 C 23.460938 39.496094 23.703125 39.207031 23.992188 39 Z M 23.992188 39 "/>
</g>
<mask id="mask55">
  <g filter="url(#alpha)">
<rect x="0" y="0" width="55" height="55" style="fill:rgb(0%,0%,0%);fill-opacity:0.00784314;stroke:none;"/>
  </g>
</mask>
<clipPath id="clip56">
  <rect x="0" y="0" width="55" height="55"/>
</clipPath>
<g id="surface170" clip-path="url(#clip56)">
<path style=" stroke:none;fill-rule:evenodd;fill:rgb(100%,96.470588%,90.588235%);fill-opacity:1;" d="M 23.183594 39.976562 C 23.019531 40.308594 22.804688 40.5625 22.539062 40.734375 C 22.707031 40.402344 22.921875 40.148438 23.183594 39.976562 Z M 23.183594 39.976562 "/>
</g>
<mask id="mask56">
  <g filter="url(#alpha)">
<rect x="0" y="0" width="55" height="55" style="fill:rgb(0%,0%,0%);fill-opacity:0.00784314;stroke:none;"/>
  </g>
</mask>
<clipPath id="clip57">
  <rect x="0" y="0" width="55" height="55"/>
</clipPath>
<g id="surface173" clip-path="url(#clip57)">
<path style=" stroke:none;fill-rule:evenodd;fill:rgb(100%,96.470588%,91.764706%);fill-opacity:1;" d="M 22.460938 40.84375 C 22.292969 41.175781 22.078125 41.429688 21.816406 41.601562 C 21.980469 41.269531 22.195312 41.015625 22.460938 40.84375 Z M 22.460938 40.84375 "/>
</g>
<mask id="mask57">
  <g filter="url(#alpha)">
<rect x="0" y="0" width="55" height="55" style="fill:rgb(0%,0%,0%);fill-opacity:0.258824;stroke:none;"/>
  </g>
</mask>
<clipPath id="clip58">
  <rect x="0" y="0" width="55" height="55"/>
</clipPath>
<g id="surface176" clip-path="url(#clip58)">
<path style=" stroke:none;fill-rule:evenodd;fill:rgb(100%,74.117647%,42.352941%);fill-opacity:1;" d="M 10.363281 39.867188 C 10.347656 40.238281 10.386719 40.601562 10.484375 40.953125 C 10.730469 41.542969 10.933594 42.160156 11.089844 42.796875 C 10.816406 42.195312 10.574219 41.5625 10.363281 40.898438 C 10.261719 40.539062 10.261719 40.195312 10.363281 39.867188 Z M 10.363281 39.867188 "/>
</g>
<mask id="mask58">
  <g filter="url(#alpha)">
<rect x="0" y="0" width="55" height="55" style="fill:rgb(0%,0%,0%);fill-opacity:0.00784314;stroke:none;"/>
  </g>
</mask>
<clipPath id="clip59">
  <rect x="0" y="0" width="55" height="55"/>
</clipPath>
<g id="surface179" clip-path="url(#clip59)">
<path style=" stroke:none;fill-rule:evenodd;fill:rgb(99.607843%,96.078431%,91.372549%);fill-opacity:1;" d="M 21.734375 41.710938 C 21.566406 42.042969 21.351562 42.296875 21.089844 42.46875 C 21.253906 42.136719 21.46875 41.882812 21.734375 41.710938 Z M 21.734375 41.710938 "/>
</g>
<mask id="mask59">
  <g filter="url(#alpha)">
<rect x="0" y="0" width="55" height="55" style="fill:rgb(0%,0%,0%);fill-opacity:0.00784314;stroke:none;"/>
  </g>
</mask>
<clipPath id="clip60">
  <rect x="0" y="0" width="55" height="55"/>
</clipPath>
<g id="surface182" clip-path="url(#clip60)">
<path style=" stroke:none;fill-rule:evenodd;fill:rgb(99.215686%,95.294118%,90.980392%);fill-opacity:1;" d="M 21.007812 42.578125 C 20.839844 42.914062 20.625 43.164062 20.363281 43.339844 C 20.53125 43.003906 20.746094 42.75 21.007812 42.578125 Z M 21.007812 42.578125 "/>
</g>
<mask id="mask60">
  <g filter="url(#alpha)">
<rect x="0" y="0" width="55" height="55" style="fill:rgb(0%,0%,0%);fill-opacity:0.00784314;stroke:none;"/>
  </g>
</mask>
<clipPath id="clip61">
  <rect x="0" y="0" width="55" height="55"/>
</clipPath>
<g id="surface185" clip-path="url(#clip61)">
<path style=" stroke:none;fill-rule:evenodd;fill:rgb(100%,96.470588%,90.980392%);fill-opacity:1;" d="M 20.28125 43.445312 C 20.089844 43.816406 19.847656 44.105469 19.554688 44.316406 C 19.75 43.945312 19.992188 43.65625 20.28125 43.445312 Z M 20.28125 43.445312 "/>
</g>
<mask id="mask61">
  <g filter="url(#alpha)">
<rect x="0" y="0" width="55" height="55" style="fill:rgb(0%,0%,0%);fill-opacity:0.00784314;stroke:none;"/>
  </g>
</mask>
<clipPath id="clip62">
  <rect x="0" y="0" width="55" height="55"/>
</clipPath>
<g id="surface188" clip-path="url(#clip62)">
<path style=" stroke:none;fill-rule:evenodd;fill:rgb(100%,96.470588%,90.588235%);fill-opacity:1;" d="M 19.476562 44.421875 C 19.308594 44.757812 19.09375 45.007812 18.832031 45.183594 C 18.996094 44.847656 19.210938 44.597656 19.476562 44.421875 Z M 19.476562 44.421875 "/>
</g>
<mask id="mask62">
  <g filter="url(#alpha)">
<rect x="0" y="0" width="55" height="55" style="fill:rgb(0%,0%,0%);fill-opacity:0.00784314;stroke:none;"/>
  </g>
</mask>
<clipPath id="clip63">
  <rect x="0" y="0" width="55" height="55"/>
</clipPath>
<g id="surface191" clip-path="url(#clip63)">
<path style=" stroke:none;fill-rule:evenodd;fill:rgb(99.607843%,96.470588%,90.980392%);fill-opacity:1;" d="M 18.75 45.289062 C 18.582031 45.625 18.367188 45.878906 18.105469 46.050781 C 18.273438 45.71875 18.488281 45.464844 18.75 45.289062 Z M 18.75 45.289062 "/>
</g>
<mask id="mask63">
  <g filter="url(#alpha)">
<rect x="0" y="0" width="55" height="55" style="fill:rgb(0%,0%,0%);fill-opacity:0.0117647;stroke:none;"/>
  </g>
</mask>
<clipPath id="clip64">
  <rect x="0" y="0" width="55" height="55"/>
</clipPath>
<g id="surface194" clip-path="url(#clip64)">
<path style=" stroke:none;fill-rule:evenodd;fill:rgb(100%,96.470588%,91.764706%);fill-opacity:1;" d="M 18.023438 46.160156 C 17.855469 46.492188 17.640625 46.746094 17.378906 46.917969 C 17.546875 46.585938 17.761719 46.332031 18.023438 46.160156 Z M 18.023438 46.160156 "/>
</g>
<mask id="mask64">
  <g filter="url(#alpha)">
<rect x="0" y="0" width="55" height="55" style="fill:rgb(0%,0%,0%);fill-opacity:0.00784314;stroke:none;"/>
  </g>
</mask>
<clipPath id="clip65">
  <rect x="0" y="0" width="55" height="55"/>
</clipPath>
<g id="surface197" clip-path="url(#clip65)">
<path style=" stroke:none;fill-rule:evenodd;fill:rgb(98.823529%,95.294118%,90.588235%);fill-opacity:1;" d="M 17.296875 47.027344 C 17.132812 47.359375 16.917969 47.613281 16.652344 47.785156 C 16.820312 47.453125 17.035156 47.199219 17.296875 47.027344 Z M 17.296875 47.027344 "/>
</g>
<mask id="mask65">
  <g filter="url(#alpha)">
<rect x="0" y="0" width="55" height="55" style="fill:rgb(0%,0%,0%);fill-opacity:0.333333;stroke:none;"/>
  </g>
</mask>
<clipPath id="clip66">
  <rect x="0" y="0" width="55" height="55"/>
</clipPath>
<g id="surface200" clip-path="url(#clip66)">
<path style=" stroke:none;fill-rule:evenodd;fill:rgb(98.823529%,72.156863%,34.901961%);fill-opacity:1;" d="M 11.574219 44.53125 C 11.652344 44.527344 11.707031 44.582031 11.734375 44.695312 C 12.242188 46.613281 12.59375 48.585938 12.78125 50.605469 C 12.503906 48.546875 12.097656 46.523438 11.574219 44.53125 Z M 11.574219 44.53125 "/>
</g>
<mask id="mask66">
  <g filter="url(#alpha)">
<rect x="0" y="0" width="55" height="55" style="fill:rgb(0%,0%,0%);fill-opacity:0.00784314;stroke:none;"/>
  </g>
</mask>
<clipPath id="clip67">
  <rect x="0" y="0" width="55" height="55"/>
</clipPath>
<g id="surface203" clip-path="url(#clip67)">
<path style=" stroke:none;fill-rule:evenodd;fill:rgb(100%,96.470588%,90.980392%);fill-opacity:1;" d="M 16.574219 47.894531 C 16.40625 48.226562 16.191406 48.480469 15.925781 48.652344 C 16.09375 48.320312 16.308594 48.066406 16.574219 47.894531 Z M 16.574219 47.894531 "/>
</g>
<mask id="mask67">
  <g filter="url(#alpha)">
<rect x="0" y="0" width="55" height="55" style="fill:rgb(0%,0%,0%);fill-opacity:0.00784314;stroke:none;"/>
  </g>
</mask>
<clipPath id="clip68">
  <rect x="0" y="0" width="55" height="55"/>
</clipPath>
<g id="surface206" clip-path="url(#clip68)">
<path style=" stroke:none;fill-rule:evenodd;fill:rgb(100%,96.470588%,90.588235%);fill-opacity:1;" d="M 15.765625 48.871094 C 15.597656 49.203125 15.382812 49.457031 15.121094 49.628906 C 15.289062 49.296875 15.503906 49.042969 15.765625 48.871094 Z M 15.765625 48.871094 "/>
</g>
<mask id="mask68">
  <g filter="url(#alpha)">
<rect x="0" y="0" width="55" height="55" style="fill:rgb(0%,0%,0%);fill-opacity:0.00784314;stroke:none;"/>
  </g>
</mask>
<clipPath id="clip69">
  <rect x="0" y="0" width="55" height="55"/>
</clipPath>
<g id="surface209" clip-path="url(#clip69)">
<path style=" stroke:none;fill-rule:evenodd;fill:rgb(99.607843%,96.470588%,90.980392%);fill-opacity:1;" d="M 15.039062 49.738281 C 14.875 50.070312 14.660156 50.324219 14.394531 50.496094 C 14.5625 50.164062 14.777344 49.910156 15.039062 49.738281 Z M 15.039062 49.738281 "/>
</g>
<mask id="mask69">
  <g filter="url(#alpha)">
<rect x="0" y="0" width="55" height="55" style="fill:rgb(0%,0%,0%);fill-opacity:0.0117647;stroke:none;"/>
  </g>
</mask>
<clipPath id="clip70">
  <rect x="0" y="0" width="55" height="55"/>
</clipPath>
<g id="surface212" clip-path="url(#clip70)">
<path style=" stroke:none;fill-rule:evenodd;fill:rgb(99.607843%,96.470588%,91.764706%);fill-opacity:1;" d="M 14.316406 50.605469 C 14.015625 51.132812 13.640625 51.277344 13.183594 51.039062 C 13.402344 51.058594 13.617188 51.039062 13.832031 50.984375 C 13.984375 50.832031 14.144531 50.707031 14.316406 50.605469 Z M 14.316406 50.605469 "/>
</g>
</defs>
<g id="surface1">
<use xlink:href="#surface5" mask="url(#mask0)"/>
<use xlink:href="#surface8" mask="url(#mask1)"/>
<use xlink:href="#surface11" mask="url(#mask2)"/>
<use xlink:href="#surface14" mask="url(#mask3)"/>
<use xlink:href="#surface17" mask="url(#mask4)"/>
<use xlink:href="#surface20" mask="url(#mask5)"/>
<use xlink:href="#surface23" mask="url(#mask6)"/>
<use xlink:href="#surface26" mask="url(#mask7)"/>
<use xlink:href="#surface29" mask="url(#mask8)"/>
<use xlink:href="#surface32" mask="url(#mask9)"/>
<use xlink:href="#surface35" mask="url(#mask10)"/>
<use xlink:href="#surface38" mask="url(#mask11)"/>
<use xlink:href="#surface41" mask="url(#mask12)"/>
<use xlink:href="#surface44" mask="url(#mask13)"/>
<use xlink:href="#surface47" mask="url(#mask14)"/>
<use xlink:href="#surface50" mask="url(#mask15)"/>
<use xlink:href="#surface53" mask="url(#mask16)"/>
<use xlink:href="#surface56" mask="url(#mask17)"/>
<use xlink:href="#surface59" mask="url(#mask18)"/>
<use xlink:href="#surface62" mask="url(#mask19)"/>
<use xlink:href="#surface65" mask="url(#mask20)"/>
<use xlink:href="#surface68" mask="url(#mask21)"/>
<use xlink:href="#surface71" mask="url(#mask22)"/>
<use xlink:href="#surface74" mask="url(#mask23)"/>
<use xlink:href="#surface77" mask="url(#mask24)"/>
<use xlink:href="#surface80" mask="url(#mask25)"/>
<use xlink:href="#surface83" mask="url(#mask26)"/>
<use xlink:href="#surface86" mask="url(#mask27)"/>
<use xlink:href="#surface89" mask="url(#mask28)"/>
<use xlink:href="#surface92" mask="url(#mask29)"/>
<use xlink:href="#surface95" mask="url(#mask30)"/>
<use xlink:href="#surface98" mask="url(#mask31)"/>
<use xlink:href="#surface101" mask="url(#mask32)"/>
<use xlink:href="#surface104" mask="url(#mask33)"/>
<use xlink:href="#surface107" mask="url(#mask34)"/>
<use xlink:href="#surface110" mask="url(#mask35)"/>
<use xlink:href="#surface113" mask="url(#mask36)"/>
<use xlink:href="#surface116" mask="url(#mask37)"/>
<use xlink:href="#surface119" mask="url(#mask38)"/>
<use xlink:href="#surface122" mask="url(#mask39)"/>
<use xlink:href="#surface125" mask="url(#mask40)"/>
<use xlink:href="#surface128" mask="url(#mask41)"/>
<use xlink:href="#surface131" mask="url(#mask42)"/>
<use xlink:href="#surface134" mask="url(#mask43)"/>
<use xlink:href="#surface137" mask="url(#mask44)"/>
<use xlink:href="#surface140" mask="url(#mask45)"/>
<use xlink:href="#surface143" mask="url(#mask46)"/>
<use xlink:href="#surface146" mask="url(#mask47)"/>
<use xlink:href="#surface149" mask="url(#mask48)"/>
<use xlink:href="#surface152" mask="url(#mask49)"/>
<use xlink:href="#surface155" mask="url(#mask50)"/>
<use xlink:href="#surface158" mask="url(#mask51)"/>
<use xlink:href="#surface161" mask="url(#mask52)"/>
<use xlink:href="#surface164" mask="url(#mask53)"/>
<use xlink:href="#surface167" mask="url(#mask54)"/>
<use xlink:href="#surface170" mask="url(#mask55)"/>
<use xlink:href="#surface173" mask="url(#mask56)"/>
<use xlink:href="#surface176" mask="url(#mask57)"/>
<use xlink:href="#surface179" mask="url(#mask58)"/>
<use xlink:href="#surface182" mask="url(#mask59)"/>
<use xlink:href="#surface185" mask="url(#mask60)"/>
<use xlink:href="#surface188" mask="url(#mask61)"/>
<use xlink:href="#surface191" mask="url(#mask62)"/>
<use xlink:href="#surface194" mask="url(#mask63)"/>
<use xlink:href="#surface197" mask="url(#mask64)"/>
<use xlink:href="#surface200" mask="url(#mask65)"/>
<use xlink:href="#surface203" mask="url(#mask66)"/>
<use xlink:href="#surface206" mask="url(#mask67)"/>
<use xlink:href="#surface209" mask="url(#mask68)"/>
<use xlink:href="#surface212" mask="url(#mask69)"/>
</g>
</svg>
